<svg width="257" height="164" viewBox="0 0 257 164" fill="none" xmlns="http://www.w3.org/2000/svg">
<path d="M0 5C0 2.23857 2.23858 0 5 0H251.998C254.76 0 256.998 2.23858 256.998 5V159C256.998 161.761 254.76 164 251.998 164H5C2.23858 164 0 161.761 0 159V5Z" fill="#1A1919"/>
<path d="M0 5C0 2.23857 2.23858 0 5 0H251.998C254.76 0 256.998 2.23858 256.998 5V159C256.998 161.761 254.76 164 251.998 164H5C2.23858 164 0 161.761 0 159V5Z" fill="url(#paint0_linear_7_4)"/>
<path d="M41 65C41 63.3431 42.3431 62 44 62H71.9985C73.6553 62 74.9985 63.3431 74.9985 65V99C74.9985 100.657 73.6553 102 71.9985 102H44C42.3431 102 41 100.657 41 99V65Z" fill="#EAFCB6"/>
<path d="M65.3544 70.49C61.4024 67.6321 55.4355 69.3872 53.0007 71.5658C50.0439 74.2115 48.4801 76.1808 48.0252 82.1054C47.8055 84.9663 49.0061 90.0531 52.2189 92.5899C58.0728 97.2121 64.7147 94.0189 64.7147 92.5899C64.7147 91.1609 64.6436 91.2452 64.0039 91.2452C63.3642 91.2452 63.5916 91.8513 61.1181 92.1564C58.4193 92.1564 57.7347 91.6856 57.0239 91.2452C54.3228 89.5718 53.7969 87.8372 53.7969 84.7866C53.7969 82.4553 55.9861 78.6946 59.1705 78.6946C63.1509 79.2355 60.8195 81.5957 64.7147 76.9555C68.6098 72.3154 69.3064 73.348 65.3544 70.49Z" fill="black" stroke="black" stroke-width="0.1"/>
<path d="M81.6785 84.54C81.6785 87.68 83.6385 89.76 86.6385 89.76C89.2185 89.76 91.1385 88.18 91.4385 85.88H88.9785C88.7185 86.96 87.8585 87.56 86.6385 87.56C85.0785 87.56 84.1185 86.4 84.1185 84.54C84.1185 82.68 85.1585 81.5 86.7185 81.5C87.8785 81.5 88.6985 82.08 88.9785 83.2H91.4185C91.1585 80.82 89.3185 79.32 86.6185 79.32C83.6985 79.32 81.6785 81.48 81.6785 84.54ZM99.4545 79.58C99.0545 79.48 98.7145 79.44 98.3745 79.44C97.0545 79.44 96.1145 80.1 95.6945 81.08L95.5545 79.64H93.2545V89.5H95.6945V84.7C95.6945 82.78 96.7945 81.84 98.5545 81.84H99.4545V79.58ZM100.539 94.08C101.079 94.22 101.679 94.3 102.359 94.3C103.979 94.3 105.019 93.54 105.759 91.7L110.599 79.62H108.079L105.399 86.82L102.859 79.62H100.279L104.259 89.92L103.979 90.66C103.559 91.82 102.959 92.04 101.999 92.04H100.539V94.08ZM111.985 94.08H114.425V88.18C115.045 89.18 116.325 89.76 117.805 89.76C120.745 89.76 122.425 87.52 122.425 84.44C122.425 81.34 120.585 79.32 117.805 79.32C116.305 79.32 115.005 79.98 114.405 81.12L114.245 79.62H111.985V94.08ZM114.445 84.56C114.445 82.78 115.545 81.54 117.225 81.54C118.945 81.54 119.965 82.8 119.965 84.56C119.965 86.32 118.945 87.56 117.225 87.56C115.545 87.56 114.445 86.34 114.445 84.56ZM127.63 89.5V81.66H129.55V79.62H127.63V76.54H125.19V79.62H123.29V81.66H125.19V89.5H127.63ZM130.389 84.54C130.389 87.62 132.609 89.74 135.669 89.74C138.729 89.74 140.949 87.62 140.949 84.54C140.949 81.46 138.729 79.34 135.669 79.34C132.609 79.34 130.389 81.46 130.389 84.54ZM132.829 84.54C132.829 82.74 133.989 81.52 135.669 81.52C137.349 81.52 138.509 82.74 138.509 84.54C138.509 86.34 137.349 87.56 135.669 87.56C133.989 87.56 132.829 86.34 132.829 84.54ZM150.714 89.5V83.9C150.714 82.3 151.654 81.54 152.814 81.54C153.974 81.54 154.714 82.28 154.714 83.66V89.5H157.154V83.9C157.154 82.28 158.054 81.52 159.234 81.52C160.394 81.52 161.154 82.26 161.154 83.68V89.5H163.574V83.04C163.574 80.76 162.254 79.32 159.854 79.32C158.354 79.32 157.194 80.06 156.694 81.2C156.174 80.06 155.134 79.32 153.634 79.32C152.214 79.32 151.214 79.96 150.714 80.78L150.514 79.62H148.274V89.5H150.714ZM170.389 89.76C172.969 89.76 174.769 88.46 175.189 86.3H172.929C172.649 87.24 171.769 87.76 170.429 87.76C168.809 87.76 167.889 86.88 167.709 85.14L175.149 85.12V84.38C175.149 81.3 173.269 79.32 170.309 79.32C167.409 79.32 165.389 81.46 165.389 84.56C165.389 87.62 167.449 89.76 170.389 89.76ZM170.329 81.32C171.789 81.32 172.729 82.22 172.729 83.58H167.769C168.009 82.1 168.889 81.32 170.329 81.32ZM180.365 89.5V81.66H182.285V79.62H180.365V76.54H177.925V79.62H176.025V81.66H177.925V89.5H180.365ZM190.001 79.58C189.601 79.48 189.261 79.44 188.921 79.44C187.601 79.44 186.661 80.1 186.241 81.08L186.101 79.64H183.801V89.5H186.241V84.7C186.241 82.78 187.341 81.84 189.101 81.84H190.001V79.58ZM192.873 77.64C193.673 77.64 194.333 76.98 194.333 76.16C194.333 75.34 193.673 74.7 192.873 74.7C192.033 74.7 191.373 75.34 191.373 76.16C191.373 76.98 192.033 77.64 192.873 77.64ZM191.653 89.5H194.093V79.62H191.653V89.5ZM196.034 84.54C196.034 87.68 197.994 89.76 200.994 89.76C203.574 89.76 205.494 88.18 205.794 85.88H203.334C203.074 86.96 202.214 87.56 200.994 87.56C199.434 87.56 198.474 86.4 198.474 84.54C198.474 82.68 199.514 81.5 201.074 81.5C202.234 81.5 203.054 82.08 203.334 83.2H205.774C205.514 80.82 203.674 79.32 200.974 79.32C198.054 79.32 196.034 81.48 196.034 84.54ZM206.85 86.5C206.85 88.44 208.41 89.76 210.87 89.76C213.31 89.76 215.01 88.52 215.01 86.52C215.01 85 214.17 84.24 212.51 83.86L210.73 83.44C209.89 83.24 209.45 82.88 209.45 82.32C209.45 81.58 210.01 81.14 210.97 81.14C211.91 81.14 212.47 81.68 212.49 82.52H214.81C214.79 80.6 213.29 79.32 211.07 79.32C208.79 79.32 207.15 80.48 207.15 82.42C207.15 84 208.01 84.84 209.79 85.24L211.57 85.66C212.45 85.86 212.71 86.22 212.71 86.72C212.71 87.44 212.09 87.9 210.95 87.9C209.83 87.9 209.19 87.36 209.17 86.5H206.85Z" fill="#EAFCB6"/>
<defs>
<linearGradient id="paint0_linear_7_4" x1="89.1526" y1="164" x2="250.745" y2="6.68146" gradientUnits="userSpaceOnUse">
<stop offset="0.0353515" stop-color="#090808"/>
<stop offset="0.904771" stop-color="#414242"/>
</linearGradient>
</defs>
</svg>
