<svg width="175" height="40" viewBox="0 0 175 40" fill="none" xmlns="http://www.w3.org/2000/svg">
<path d="M0 3C0 1.34315 1.34315 0 3 0H30.9985C32.6553 0 33.9985 1.34315 33.9985 3V37C33.9985 38.6569 32.6553 40 30.9985 40H3C1.34315 40 0 38.6569 0 37V3Z" fill="#EAFCB6"/>
<path d="M24.3544 8.49002C20.4024 5.63208 14.4355 7.38721 12.0007 9.56577C9.04388 12.2115 7.48013 14.1808 7.02521 20.1054C6.80555 22.9663 8.00612 28.0531 11.2189 30.5899C17.0728 35.2121 23.7147 32.0189 23.7147 30.5899C23.7147 29.1609 23.6436 29.2452 23.0039 29.2452C22.3642 29.2452 22.5916 29.8513 20.1181 30.1564C17.4193 30.1564 16.7347 29.6856 16.0239 29.2452C13.3228 27.5718 12.7969 25.8372 12.7969 22.7866C12.7969 20.4553 14.9861 16.6946 18.1705 16.6946C22.1509 17.2355 19.8195 19.5957 23.7147 14.9555C27.6098 10.3154 28.3064 11.348 24.3544 8.49002Z" fill="black" stroke="black" stroke-width="0.1"/>
<path d="M40.6785 22.54C40.6785 25.68 42.6385 27.76 45.6385 27.76C48.2185 27.76 50.1385 26.18 50.4385 23.88H47.9785C47.7185 24.96 46.8585 25.56 45.6385 25.56C44.0785 25.56 43.1185 24.4 43.1185 22.54C43.1185 20.68 44.1585 19.5 45.7185 19.5C46.8785 19.5 47.6985 20.08 47.9785 21.2H50.4185C50.1585 18.82 48.3185 17.32 45.6185 17.32C42.6985 17.32 40.6785 19.48 40.6785 22.54ZM58.4545 17.58C58.0545 17.48 57.7145 17.44 57.3745 17.44C56.0545 17.44 55.1145 18.1 54.6945 19.08L54.5545 17.64H52.2545V27.5H54.6945V22.7C54.6945 20.78 55.7945 19.84 57.5545 19.84H58.4545V17.58ZM59.5391 32.08C60.0791 32.22 60.6791 32.3 61.3591 32.3C62.9791 32.3 64.0191 31.54 64.7591 29.7L69.5991 17.62H67.0791L64.3991 24.82L61.8591 17.62H59.2791L63.2591 27.92L62.9791 28.66C62.5591 29.82 61.9591 30.04 60.9991 30.04H59.5391V32.08ZM70.985 32.08H73.425V26.18C74.045 27.18 75.325 27.76 76.805 27.76C79.745 27.76 81.425 25.52 81.425 22.44C81.425 19.34 79.585 17.32 76.805 17.32C75.305 17.32 74.005 17.98 73.405 19.12L73.245 17.62H70.985V32.08ZM73.445 22.56C73.445 20.78 74.545 19.54 76.225 19.54C77.945 19.54 78.965 20.8 78.965 22.56C78.965 24.32 77.945 25.56 76.225 25.56C74.545 25.56 73.445 24.34 73.445 22.56ZM86.6302 27.5V19.66H88.5502V17.62H86.6302V14.54H84.1902V17.62H82.2902V19.66H84.1902V27.5H86.6302ZM89.3894 22.54C89.3894 25.62 91.6094 27.74 94.6694 27.74C97.7294 27.74 99.9494 25.62 99.9494 22.54C99.9494 19.46 97.7294 17.34 94.6694 17.34C91.6094 17.34 89.3894 19.46 89.3894 22.54ZM91.8294 22.54C91.8294 20.74 92.9894 19.52 94.6694 19.52C96.3494 19.52 97.5094 20.74 97.5094 22.54C97.5094 24.34 96.3494 25.56 94.6694 25.56C92.9894 25.56 91.8294 24.34 91.8294 22.54ZM109.714 27.5V21.9C109.714 20.3 110.654 19.54 111.814 19.54C112.974 19.54 113.714 20.28 113.714 21.66V27.5H116.154V21.9C116.154 20.28 117.054 19.52 118.234 19.52C119.394 19.52 120.154 20.26 120.154 21.68V27.5H122.574V21.04C122.574 18.76 121.254 17.32 118.854 17.32C117.354 17.32 116.194 18.06 115.694 19.2C115.174 18.06 114.134 17.32 112.634 17.32C111.214 17.32 110.214 17.96 109.714 18.78L109.514 17.62H107.274V27.5H109.714ZM129.389 27.76C131.969 27.76 133.769 26.46 134.189 24.3H131.929C131.649 25.24 130.769 25.76 129.429 25.76C127.809 25.76 126.889 24.88 126.709 23.14L134.149 23.12V22.38C134.149 19.3 132.269 17.32 129.309 17.32C126.409 17.32 124.389 19.46 124.389 22.56C124.389 25.62 126.449 27.76 129.389 27.76ZM129.329 19.32C130.789 19.32 131.729 20.22 131.729 21.58H126.769C127.009 20.1 127.889 19.32 129.329 19.32ZM139.365 27.5V19.66H141.285V17.62H139.365V14.54H136.925V17.62H135.025V19.66H136.925V27.5H139.365ZM149.001 17.58C148.601 17.48 148.261 17.44 147.921 17.44C146.601 17.44 145.661 18.1 145.241 19.08L145.101 17.64H142.801V27.5H145.241V22.7C145.241 20.78 146.341 19.84 148.101 19.84H149.001V17.58ZM151.873 15.64C152.673 15.64 153.333 14.98 153.333 14.16C153.333 13.34 152.673 12.7 151.873 12.7C151.033 12.7 150.373 13.34 150.373 14.16C150.373 14.98 151.033 15.64 151.873 15.64ZM150.653 27.5H153.093V17.62H150.653V27.5ZM155.034 22.54C155.034 25.68 156.994 27.76 159.994 27.76C162.574 27.76 164.494 26.18 164.794 23.88H162.334C162.074 24.96 161.214 25.56 159.994 25.56C158.434 25.56 157.474 24.4 157.474 22.54C157.474 20.68 158.514 19.5 160.074 19.5C161.234 19.5 162.054 20.08 162.334 21.2H164.774C164.514 18.82 162.674 17.32 159.974 17.32C157.054 17.32 155.034 19.48 155.034 22.54ZM165.85 24.5C165.85 26.44 167.41 27.76 169.87 27.76C172.31 27.76 174.01 26.52 174.01 24.52C174.01 23 173.17 22.24 171.51 21.86L169.73 21.44C168.89 21.24 168.45 20.88 168.45 20.32C168.45 19.58 169.01 19.14 169.97 19.14C170.91 19.14 171.47 19.68 171.49 20.52H173.81C173.79 18.6 172.29 17.32 170.07 17.32C167.79 17.32 166.15 18.48 166.15 20.42C166.15 22 167.01 22.84 168.79 23.24L170.57 23.66C171.45 23.86 171.71 24.22 171.71 24.72C171.71 25.44 171.09 25.9 169.95 25.9C168.83 25.9 168.19 25.36 168.17 24.5H165.85Z" fill="#EAFCB6"/>
</svg>
