<svg width="234" height="43" viewBox="0 0 234 43" fill="none" xmlns="http://www.w3.org/2000/svg">
<path d="M0 4.5C0 2.84315 1.34315 1.5 3 1.5H30.9985C32.6553 1.5 33.9985 2.84315 33.9985 4.5V38.5C33.9985 40.1569 32.6553 41.5 30.9985 41.5H3C1.34315 41.5 0 40.1569 0 38.5V4.5Z" fill="#EAFCB6"/>
<path d="M24.3544 9.99002C20.4024 7.13208 14.4355 8.88721 12.0007 11.0658C9.04388 13.7115 7.48013 15.6808 7.02521 21.6054C6.80555 24.4663 8.00612 29.5531 11.2189 32.0899C17.0728 36.7121 23.7147 33.5189 23.7147 32.0899C23.7147 30.6609 23.6436 30.7452 23.0039 30.7452C22.3642 30.7452 22.5916 31.3513 20.1181 31.6564C17.4193 31.6564 16.7347 31.1856 16.0239 30.7452C13.3228 29.0718 12.7969 27.3372 12.7969 24.2866C12.7969 21.9553 14.9861 18.1946 18.1705 18.1946C22.1509 18.7355 19.8195 21.0957 23.7147 16.4555C27.6098 11.8154 28.3064 12.848 24.3544 9.99002Z" fill="black" stroke="black" stroke-width="0.1"/>
<path d="M47.9345 18.128C47.2945 17.968 46.7505 17.904 46.2065 17.904C44.0945 17.904 42.5905 18.96 41.9185 20.528L41.6945 18.224H38.0145V34H41.9185V26.32C41.9185 23.248 43.6785 21.744 46.4945 21.744H47.9345V18.128ZM49.6697 41.328C50.5337 41.552 51.4937 41.68 52.5817 41.68C55.1737 41.68 56.8377 40.464 58.0217 37.52L65.7657 18.192H61.7337L57.4457 29.712L53.3817 18.192H49.2537L55.6217 34.672L55.1737 35.856C54.5017 37.712 53.5417 38.064 52.0057 38.064H49.6697V41.328ZM67.9832 41.328H71.8872V31.888C72.8792 33.488 74.9272 34.416 77.2952 34.416C81.9992 34.416 84.6872 30.832 84.6872 25.904C84.6872 20.944 81.7432 17.712 77.2952 17.712C74.8952 17.712 72.8152 18.768 71.8552 20.592L71.5992 18.192H67.9832V41.328ZM71.9192 26.096C71.9192 23.248 73.6792 21.264 76.3672 21.264C79.1192 21.264 80.7512 23.28 80.7512 26.096C80.7512 28.912 79.1192 30.896 76.3672 30.896C73.6792 30.896 71.9192 28.944 71.9192 26.096ZM93.0155 34V21.456H96.0875V18.192H93.0155V13.264H89.1115V18.192H86.0715V21.456H89.1115V34H93.0155ZM97.4302 26.064C97.4302 30.992 100.982 34.384 105.878 34.384C110.774 34.384 114.326 30.992 114.326 26.064C114.326 21.136 110.774 17.744 105.878 17.744C100.982 17.744 97.4302 21.136 97.4302 26.064ZM101.334 26.064C101.334 23.184 103.19 21.232 105.878 21.232C108.566 21.232 110.422 23.184 110.422 26.064C110.422 28.944 108.566 30.896 105.878 30.896C103.19 30.896 101.334 28.944 101.334 26.064ZM129.95 34V25.04C129.95 22.48 131.454 21.264 133.31 21.264C135.166 21.264 136.35 22.448 136.35 24.656V34H140.254V25.04C140.254 22.448 141.694 21.232 143.582 21.232C145.438 21.232 146.654 22.416 146.654 24.688V34H150.526V23.664C150.526 20.016 148.414 17.712 144.574 17.712C142.174 17.712 140.318 18.896 139.518 20.72C138.686 18.896 137.022 17.712 134.622 17.712C132.35 17.712 130.75 18.736 129.95 20.048L129.63 18.192H126.046V34H129.95ZM161.43 34.416C165.558 34.416 168.438 32.336 169.11 28.88H165.494C165.046 30.384 163.638 31.216 161.494 31.216C158.902 31.216 157.43 29.808 157.142 27.024L169.046 26.992V25.808C169.046 20.88 166.038 17.712 161.302 17.712C156.662 17.712 153.43 21.136 153.43 26.096C153.43 30.992 156.726 34.416 161.43 34.416ZM161.334 20.912C163.67 20.912 165.174 22.352 165.174 24.528H157.238C157.622 22.16 159.03 20.912 161.334 20.912ZM177.39 34V21.456H180.462V18.192H177.39V13.264H173.486V18.192H170.446V21.456H173.486V34H177.39ZM192.809 18.128C192.169 17.968 191.625 17.904 191.081 17.904C188.969 17.904 187.465 18.96 186.793 20.528L186.569 18.224H182.889V34H186.793V26.32C186.793 23.248 188.553 21.744 191.369 21.744H192.809V18.128ZM197.404 15.024C198.684 15.024 199.74 13.968 199.74 12.656C199.74 11.344 198.684 10.32 197.404 10.32C196.06 10.32 195.004 11.344 195.004 12.656C195.004 13.968 196.06 15.024 197.404 15.024ZM195.452 34H199.356V18.192H195.452V34ZM202.461 26.064C202.461 31.088 205.597 34.416 210.397 34.416C214.525 34.416 217.597 31.888 218.077 28.208H214.141C213.725 29.936 212.349 30.896 210.397 30.896C207.901 30.896 206.365 29.04 206.365 26.064C206.365 23.088 208.029 21.2 210.525 21.2C212.381 21.2 213.693 22.128 214.141 23.92H218.045C217.629 20.112 214.685 17.712 210.365 17.712C205.693 17.712 202.461 21.168 202.461 26.064ZM219.767 29.2C219.767 32.304 222.263 34.416 226.199 34.416C230.103 34.416 232.823 32.432 232.823 29.232C232.823 26.8 231.479 25.584 228.823 24.976L225.975 24.304C224.631 23.984 223.927 23.408 223.927 22.512C223.927 21.328 224.823 20.624 226.359 20.624C227.863 20.624 228.759 21.488 228.791 22.832H232.503C232.471 19.76 230.071 17.712 226.519 17.712C222.871 17.712 220.247 19.568 220.247 22.672C220.247 25.2 221.623 26.544 224.471 27.184L227.319 27.856C228.727 28.176 229.143 28.752 229.143 29.552C229.143 30.704 228.151 31.44 226.327 31.44C224.535 31.44 223.511 30.576 223.479 29.2H219.767Z" fill="#EAFCB6"/>
</svg>
